{"asset":{"version":"2.0","generator":"VECTARY"},"nodes":[{"translation":[17.50393746562073,1.4138209016259171,-4.475515422191558],"scale":[0.001,0.001,0.001],"rotation":[-2.0447299964310162e-7,-4.5402117142445765e-23,4.540211714244577e-23,0.9999999999999791],"name":"Directional Light","extensions":{"KHR_lights_punctual":{"light":0}}},{"translation":[1.5866218240556684,-6.990749739088642e-10,-0.8564656973923384],"scale":[0.02857143496643432,0.03809525478993309,0.09999993777789537],"rotation":[-0.5,0.5,-0.4999999999999999,0.5000000000000001],"name":"Corner Wall","children":[2]},{"translation":[5.000030517578125,-5.000030517578125,6.990750875957019e-7],"scale":[1,1,1],"rotation":[0,0,0,1],"name":"Corner wall","mesh":0}],"extensions":{"KHR_lights_punctual":{"lights":[{"name":"Directional Light","type":"directional","intensity":0.4,"color":[0.13333333333333333,0.18823529411764706,0.788235294117647]}]}},"materials":[{"pbrMetallicRoughness":{"baseColorFactor":[0.02201299491933654,0.02422294206753424,0.028991186547107816,1],"metallicFactor":0,"roughnessFactor":1},"name":"Shape","emissiveFactor":[0,0,0],"extensions":{"KHR_materials_clearcoat":{"clearcoatFactor":0.1,"clearcoatRoughnessFactor":0.2}},"alphaMode":"OPAQUE","doubleSided":false}],"meshes":[{"primitives":[{"mode":4,"attributes":{"POSITION":1,"NORMAL":2,"TEXCOORD_0":3},"material":0,"indices":0}]}],"accessors":[{"bufferView":0,"byteOffset":0,"componentType":5125,"count":324,"type":"SCALAR"},{"bufferView":1,"byteOffset":0,"componentType":5126,"count":183,"max":[99.99993133544922,109.99999237060547,200.0001220703125],"min":[-109.99999237060547,-99.99993133544922,-6.990750875957019e-7],"type":"VEC3"},{"bufferView":2,"byteOffset":0,"componentType":5126,"count":183,"type":"VEC3"},{"bufferView":3,"byteOffset":0,"componentType":5126,"count":183,"type":"VEC2"}],"bufferViews":[{"buffer":0,"byteOffset":0,"byteLength":1296,"target":34963},{"buffer":0,"byteOffset":1296,"byteLength":2196,"target":34962},{"buffer":0,"byteOffset":3492,"byteLength":2196,"target":34962},{"buffer":0,"byteOffset":5688,"byteLength":1464,"target":34962}],"scene":0,"scenes":[{"nodes":[0,1],"name":"Room"}],"extensionsUsed":["KHR_texture_transform","KHR_lights_punctual","KHR_materials_clearcoat"],"extensionsRequired":["KHR_lights_punctual"],"buffers":[{"byteLength":7152,"uri":"Room.bin"}]}